<svg width="512" height="512" viewBox="0 0 512 512" fill="none" xmlns="http://www.w3.org/2000/svg">
<path opacity="0.991" fill-rule="evenodd" clip-rule="evenodd" d="M138.648 343.534C137.534 344.858 136.564 346.325 135.737 347.936C132.137 354.651 128.46 361.312 124.706 367.915C124.558 368.237 124.507 368.576 124.553 368.931C124.145 369.043 124.145 369.158 124.553 369.27C125.452 369.531 126.371 369.757 127.311 369.947C154.763 363.124 182.237 356.405 209.733 349.799C212.189 349.667 214.64 349.498 217.087 349.291C214.078 353.239 210.708 357.018 206.975 360.635C176.131 370.794 145.286 380.952 114.442 391.111C100.459 391.602 86.467 391.883 72.4644 391.958C68.0727 391.846 63.6807 391.731 59.2891 391.619C122.973 274.105 186.807 156.715 250.791 39.4497C259.495 57.2183 268.125 75.0527 276.682 92.9524C276.887 93.4037 276.887 93.8555 276.682 94.3068C230.587 177.345 184.575 260.421 138.648 343.534Z" fill="#C2C2C2"/>
<path opacity="0.995" fill-rule="evenodd" clip-rule="evenodd" d="M296.445 134.942C296.243 162.33 296.447 189.645 297.058 216.889C275.057 252.328 253.098 287.827 231.181 323.386C230.173 323.586 229.714 323.078 229.803 321.862C229.649 304.423 229.496 286.984 229.343 269.545C229.296 263.476 229.449 257.437 229.803 251.429C251.966 212.487 274.129 173.545 296.292 134.603C296.414 134.68 296.465 134.793 296.445 134.942Z" fill="#C1C2C1"/>
<path opacity="0.989" fill-rule="evenodd" clip-rule="evenodd" d="M296.445 134.942C353.801 232.92 411.251 330.895 468.797 428.868C469.149 429.955 469.355 431.082 469.41 432.254C469.615 455.958 469.615 479.661 469.41 503.365C411.88 407.92 354.429 312.429 297.058 216.889C296.447 189.645 296.243 162.33 296.445 134.942Z" fill="#F8F9F8"/>
<path opacity="0.988" fill-rule="evenodd" clip-rule="evenodd" d="M217.087 349.291C214.64 349.498 212.189 349.667 209.733 349.799C182.237 356.405 154.763 363.124 127.311 369.947C126.371 369.757 125.452 369.531 124.553 369.27C124.553 369.158 124.553 369.043 124.553 368.931C124.507 368.576 124.558 368.237 124.706 367.915C128.46 361.312 132.137 354.651 135.737 347.936C136.564 346.325 137.534 344.858 138.647 343.534C168.954 337.039 199.288 330.718 229.649 324.571C229.662 325.562 229.406 326.465 228.883 327.28C224.882 334.579 220.95 341.916 217.087 349.291Z" fill="#F8F8F8"/>
</svg>
